<svg xmlns="http://www.w3.org/2000/svg" width="47" height="40" viewBox="0 0 47 40">
    <g fill="none" fill-rule="evenodd">
        <path d="M2 3h39.551v32.638H2z"/>
        <path fill="#231F20" fill-rule="nonzero" d="M11.793 31.532v-1.626a.968.968 0 0 0-.275-.746.956.956 0 0 0-.738-.285.995.995 0 0 0-.905.461.944.944 0 0 0-.851-.46.85.85 0 0 0-.755.384v-.32h-.56v2.592h.566v-1.426a.61.61 0 0 1 .154-.493.602.602 0 0 1 .476-.195c.372 0 .56.244.56.683v1.442h.566v-1.437a.612.612 0 0 1 .156-.492.604.604 0 0 1 .475-.196c.382 0 .566.244.566.683v1.442l.565-.011zm8.371-2.591h-.921v-.787h-.566v.787h-.512v.515h.523v1.192c0 .602.231.96.894.96.248 0 .49-.069.7-.2l-.16-.483c-.151.09-.322.14-.497.146-.27 0-.371-.173-.371-.434v-1.181h.916l-.006-.515zm4.78-.066a.759.759 0 0 0-.68.38v-.314h-.554v2.59h.56V30.08c0-.428.183-.667.539-.667.12-.001.239.02.35.065l.173-.542a1.192 1.192 0 0 0-.4-.07l.012.01zm-7.226.272a1.917 1.917 0 0 0-1.05-.272c-.653 0-1.079.315-1.079.83 0 .423.313.683.89.764l.269.038c.307.044.453.125.453.271 0 .2-.205.315-.588.315a1.366 1.366 0 0 1-.856-.271l-.27.439c.327.23.717.347 1.115.336.744 0 1.175-.352 1.175-.846 0-.493-.34-.694-.9-.775l-.27-.038c-.242-.032-.436-.081-.436-.255 0-.173.184-.303.49-.303.285.003.563.08.809.222l.248-.455zm15.01-.272a.759.759 0 0 0-.68.38v-.314h-.555v2.59h.56V30.08c0-.428.184-.667.54-.667.12-.001.238.02.35.065l.172-.542a1.192 1.192 0 0 0-.399-.07l.011.01zm-7.221 1.356c-.014.368.128.725.39.983.26.258.618.393.984.372.336.017.667-.093.927-.309l-.27-.455c-.194.148-.43.23-.673.233a.83.83 0 0 1-.76-.83.83.83 0 0 1 .76-.83c.243.004.48.085.673.234l.27-.455a1.342 1.342 0 0 0-.927-.31 1.297 1.297 0 0 0-.985.373 1.313 1.313 0 0 0-.39.983v.01zm5.248 0v-1.29h-.56v.314a.976.976 0 0 0-.809-.38c-.744 0-1.347.607-1.347 1.356 0 .748.603 1.355 1.347 1.355a.976.976 0 0 0 .809-.38v.315h.56v-1.29zm-2.085 0a.78.78 0 0 1 .806-.737c.423.016.756.37.75.796a.78.78 0 0 1-1.346.527.78.78 0 0 1-.21-.586zm-6.763-1.356a1.352 1.352 0 0 0-1.328 1.375c.01.748.622 1.347 1.366 1.336a1.56 1.56 0 0 0 1.07-.352l-.27-.418a1.221 1.221 0 0 1-.749.271.715.715 0 0 1-.77-.634h1.913v-.217c0-.813-.502-1.355-1.224-1.355l-.008-.006zm0 .505a.636.636 0 0 1 .652.629h-1.347a.664.664 0 0 1 .685-.63h.01zm14.04.856V27.9h-.54v1.355a.976.976 0 0 0-.807-.38c-.744 0-1.347.607-1.347 1.356 0 .748.603 1.355 1.347 1.355a.976.976 0 0 0 .808-.38v.315h.539v-1.285zm.935.92a.268.268 0 0 1 .185.072.253.253 0 0 1-.084.417.252.252 0 0 1-.101.022.27.27 0 0 1-.243-.157.256.256 0 0 1 .057-.282.27.27 0 0 1 .194-.073h-.008zm0 .457a.19.19 0 0 0 .14-.06.201.201 0 0 0 0-.27.193.193 0 0 0-.218-.043.197.197 0 0 0-.065.043.201.201 0 0 0 0 .27.2.2 0 0 0 .064.044.198.198 0 0 0 .087.016h-.008zm.016-.322a.107.107 0 0 1 .07.021.068.068 0 0 1 .024.057.065.065 0 0 1-.019.05.094.094 0 0 1-.056.023l.078.09h-.062l-.073-.09h-.024v.09h-.051v-.239l.113-.002zm-.06.046v.065h.06c.01.003.022.003.032 0a.027.027 0 0 0 0-.025.027.027 0 0 0 0-.024.056.056 0 0 0-.032 0l-.06-.016zm-2.963-1.1a.78.78 0 0 1 .806-.737c.424.015.757.369.75.795a.78.78 0 0 1-1.346.528.78.78 0 0 1-.21-.587zm-18.921 0V28.94h-.56v.314a.976.976 0 0 0-.809-.38c-.744 0-1.347.607-1.347 1.356 0 .748.603 1.355 1.347 1.355a.976.976 0 0 0 .808-.38v.315h.56v-1.285zm-2.086 0a.78.78 0 0 1 .807-.737c.423.015.756.369.75.795a.78.78 0 0 1-.775.77.77.77 0 0 1-.575-.24.78.78 0 0 1-.212-.589h.005z"/>
        <g fill-rule="nonzero">
            <path fill="#FF5F00" d="M17.532 9.194h8.487v15.345h-8.487z"/>
            <path fill="#EB001B" d="M18.07 16.867a9.764 9.764 0 0 1 3.705-7.673 9.657 9.657 0 0 0-13.118 1.052c-3.432 3.738-3.432 9.502 0 13.24a9.657 9.657 0 0 0 13.118 1.053 9.764 9.764 0 0 1-3.704-7.672z"/>
            <path fill="#F79E1B" d="M37.469 16.867a9.764 9.764 0 0 1-5.46 8.777 9.651 9.651 0 0 1-10.234-1.105 9.78 9.78 0 0 0 3.706-7.673 9.78 9.78 0 0 0-3.706-7.672 9.651 9.651 0 0 1 10.233-1.106 9.764 9.764 0 0 1 5.46 8.777v.002zM36.542 22.92v-.32h.127v-.067h-.32v.066h.137v.321h.056zm.622 0v-.387h-.097l-.113.276-.113-.276h-.086v.387h.07v-.29l.105.251h.073l.105-.251v.293l.056-.003z"/>
        </g>
    </g>
</svg>
